<svg width="17" height="18" viewBox="0 0 17 18" fill="none" xmlns="http://www.w3.org/2000/svg">
<path d="M11.353 16.1053C11.3531 16.5833 11.1719 17.0437 10.8456 17.3942C10.5194 17.7447 10.0722 17.9594 9.59369 17.9953L9.45104 18H7.54911C7.06927 18.0002 6.60711 17.8196 6.25527 17.4946C5.90342 17.1695 5.68791 16.724 5.65192 16.2474L5.64717 16.1053H11.353ZM8.50007 9.03853e-10C10.2261 -2.8369e-05 11.8846 0.667794 13.1258 1.8626C14.367 3.0574 15.0939 4.68577 15.1531 6.40421L15.1569 6.63158V10.1975L16.8895 13.6497C16.9651 13.8003 17.003 13.967 16.9998 14.1353C16.9966 14.3037 16.9526 14.4688 16.8713 14.6165C16.7901 14.7642 16.6741 14.8901 16.5334 14.9834C16.3926 15.0767 16.2313 15.1346 16.0631 15.1522L15.9538 15.1579H1.04638C0.877259 15.1579 0.710652 15.1171 0.56083 15.039C0.411009 14.9608 0.282442 14.8477 0.186145 14.7092C0.0898479 14.5707 0.0286931 14.411 0.00792097 14.2438C-0.0128512 14.0766 0.00737874 13.9069 0.066877 13.7492L0.110622 13.6497L1.84329 10.1975V6.63158C1.84329 4.87278 2.54463 3.18601 3.79302 1.94234C5.04141 0.698682 6.73458 9.03855e-10 8.50007 9.03853e-10Z" fill="#F59121"/>
</svg>
