<svg width="228" height="31" viewBox="0 0 228 31" fill="none" xmlns="http://www.w3.org/2000/svg">
<path d="M227.719 1.8005H218.874C216.768 1.8005 214.716 2.46986 213.015 3.71193L209.284 6.43644C207.583 7.67851 205.532 8.34787 203.425 8.34787H191.694C189.957 8.34787 188.251 8.80309 186.745 9.66814L180.701 13.1402C177.003 15.2648 172.361 14.7917 169.167 11.9645L164.348 7.69769C160.222 4.04518 153.706 5.78432 151.95 11.0072L149.745 17.5608C148.807 20.3492 145.185 21.0477 143.278 18.8082V18.8082C141.803 17.0772 139.146 17.0283 137.609 18.7038L133.745 22.9153C131.45 25.4172 127.924 26.3828 124.674 25.3996L117.008 23.0806C114.256 22.248 111.278 22.6487 108.844 24.179L103.279 27.6778C99.9666 29.7602 95.7405 29.7046 92.4841 27.5357L90.7525 26.3824C89.1213 25.296 87.2052 24.7163 85.2454 24.7163H78.8983C77.127 24.7163 75.3879 24.2427 73.8612 23.3446L67.3943 19.5406C65.8676 18.6425 64.1285 18.1689 62.3572 18.1689H56.8859C55.7496 18.1689 54.6216 18.3639 53.5512 18.7453L47.3944 20.9392C42.6819 22.6185 37.4639 20.4513 35.3277 15.9275L34.8799 14.9792C32.1567 9.21245 24.4726 8.01519 20.1241 12.6801V12.6801C18.4178 14.5105 16.0279 15.55 13.5255 15.55H0" stroke="white" stroke-width="1.98693"/>
</svg>
