<svg width="228" height="30" viewBox="0 0 228 30" fill="none" xmlns="http://www.w3.org/2000/svg">
<path d="M228 1.59603H219.155C217.049 1.59603 214.997 2.26539 213.296 3.50746L209.565 6.23197C207.865 7.47404 205.813 8.1434 203.707 8.1434H191.975C190.239 8.1434 188.532 8.59862 187.026 9.46368L180.982 12.9357C177.284 15.0604 172.642 14.5872 169.449 11.76L164.629 7.49322C160.503 3.84071 153.988 5.57986 152.231 10.8027L150.026 17.3563C149.088 20.1447 145.467 20.8432 143.559 18.6037V18.6037C142.084 16.8728 139.427 16.8238 137.89 18.4994L134.026 22.7109C131.731 25.2127 128.205 26.1783 124.955 25.1952L117.29 22.8761C114.538 22.0436 111.56 22.4442 109.125 23.9746L103.56 27.4734C100.248 29.5558 96.0217 29.5001 92.7654 27.3313L91.0338 26.1779C89.4026 25.0915 87.4865 24.5118 85.5266 24.5118H79.1795C77.4082 24.5118 75.6692 24.0383 74.1424 23.1402L67.6755 19.3361C66.1488 18.438 64.4097 17.9645 62.6385 17.9645H57.1672C56.0308 17.9645 54.9029 18.1594 53.8325 18.5408L47.6756 20.7348C42.9631 22.414 37.7452 20.2468 35.609 15.7231L35.1611 14.7747C32.438 9.00798 24.7539 7.81073 20.4054 12.4756V12.4756C18.6991 14.3061 16.3091 15.3455 13.8067 15.3455H0.28125" stroke="white" stroke-width="1.98693"/>
</svg>
