<svg width="231" height="32" viewBox="0 0 231 32" fill="none" xmlns="http://www.w3.org/2000/svg">
<path d="M230 9.0001L217.971 9.73194L214.115 16.9932C211.971 21.0315 206.276 21.2776 203.792 17.4392L201.258 13.5246C199.368 10.6056 195.399 9.90217 192.622 11.9942L186.864 16.3312C184.855 17.8437 182.117 17.9421 180.005 16.5775L178.659 15.7073C174.672 13.1302 169.414 15.9925 169.414 20.7403V25.247C169.414 31.4052 161.239 33.5582 158.206 28.1989L147.791 9.79894C145.668 6.04867 140.4 5.69773 137.798 9.13335L137.612 9.37865C136.824 10.4199 136.397 11.6901 136.397 12.9961V19.6853C136.397 25.2625 129.447 27.8155 125.837 23.5643L116.099 12.0971C113.114 8.58178 107.443 9.61475 105.889 13.9568L103.69 20.1022C101.788 25.415 94.2678 25.3951 92.3946 20.0724L87.0815 4.97544C86.2374 2.57688 83.9715 0.972168 81.4287 0.972168H75.7703C74.5941 0.972168 73.4439 1.31829 72.4631 1.96742L64.6655 7.12776C63.6847 7.77688 62.5345 8.123 61.3583 8.123H54.7135C53.9495 8.123 53.1927 7.97694 52.4836 7.69268L43.4227 4.06024C40.3857 2.84272 36.9335 4.28627 35.6672 7.30324L32.1733 15.6273C30.431 19.7781 24.9053 20.5977 22.0332 17.1314L18.7365 13.1526C17.598 11.7785 15.9064 10.9833 14.122 10.9833H0" stroke="white" stroke-width="1.19853"/>
</svg>
