<svg width="228" height="19" viewBox="0 0 228 19" fill="none" xmlns="http://www.w3.org/2000/svg">
<path d="M0 17.8325H9.29022C11.2944 17.8325 13.2514 17.225 14.9033 16.0902L18.7972 13.4152C20.4491 12.2804 22.4062 11.673 24.4103 11.673H36.4492C38.0949 11.673 39.7147 11.2633 41.1624 10.4808L47.5861 7.00919C51.1509 5.0826 55.5294 5.5196 58.6431 8.11276L64.2846 12.8111C68.1999 16.0718 74.1654 14.4434 75.8809 9.64558V9.64558C77.8306 4.19252 85.0354 3.04593 88.5816 7.62434L94.9901 15.8981C98.0445 19.8416 104.36 17.6817 104.36 12.6937V12.6937C104.36 7.98179 110.1 5.67016 113.366 9.0668L114.695 10.449C116.895 12.7374 120.496 12.9181 122.914 10.8614L124.903 9.16993C127.872 6.64434 132.161 6.40659 135.392 8.58847L136.327 9.22058C140.387 11.9625 145.941 10.3031 147.831 5.78345V5.78345C149.822 1.02142 155.821 -0.50577 159.847 2.72436L166.462 8.03171C169.264 10.2799 173.063 10.8361 176.392 9.4856L179.266 8.31945C180.439 7.84378 181.458 7.05545 182.214 6.04035V6.04035C185.286 1.91189 191.631 2.46704 193.939 7.06634L194.233 7.65178C196.478 12.124 202.449 13.0742 205.971 9.51958L207.843 7.63039C209.576 5.88138 211.936 4.89743 214.398 4.89743H228" stroke="#3BDA89" stroke-width="1.98261"/>
</svg>
