<svg width="18" height="19" viewBox="0 0 18 19" fill="none" xmlns="http://www.w3.org/2000/svg">
<path d="M1 10.5744H7C7.55 10.5744 8 10.107 8 9.53568V1.22554C8 0.654213 7.55 0.186768 7 0.186768H1C0.45 0.186768 0 0.654213 0 1.22554V9.53568C0 10.107 0.45 10.5744 1 10.5744ZM1 18.8846H7C7.55 18.8846 8 18.4171 8 17.8458V13.6908C8 13.1194 7.55 12.652 7 12.652H1C0.45 12.652 0 13.1194 0 13.6908V17.8458C0 18.4171 0.45 18.8846 1 18.8846ZM11 18.8846H17C17.55 18.8846 18 18.4171 18 17.8458V9.53568C18 8.96436 17.55 8.49691 17 8.49691H11C10.45 8.49691 10 8.96436 10 9.53568V17.8458C10 18.4171 10.45 18.8846 11 18.8846ZM10 1.22554V5.38061C10 5.95193 10.45 6.41938 11 6.41938H17C17.55 6.41938 18 5.95193 18 5.38061V1.22554C18 0.654213 17.55 0.186768 17 0.186768H11C10.45 0.186768 10 0.654213 10 1.22554Z" fill="black"/>
</svg>
