<svg width="20" height="20" viewBox="0 0 20 20" fill="none" xmlns="http://www.w3.org/2000/svg">
<path d="M18.9518 18.2515C17.4644 15.5803 15.0801 13.7564 12.3177 13.0989C13.6303 12.5403 14.7155 11.5255 15.3878 10.228C16.0601 8.93041 16.2779 7.43063 16.0038 5.98485C15.7297 4.53906 14.9809 3.23699 13.8852 2.30108C12.7895 1.36518 11.415 0.853516 9.99642 0.853516C8.57787 0.853516 7.20333 1.36518 6.10764 2.30108C5.01195 3.23699 4.26311 4.53906 3.98905 5.98485C3.71498 7.43063 3.93271 8.93041 4.60503 10.228C5.27734 11.5255 6.36253 12.5403 7.67519 13.0989C4.91636 13.7536 2.52849 15.5803 1.04103 18.2515C0.99797 18.337 0.98838 18.4365 1.01426 18.5292C1.04014 18.6219 1.0995 18.7006 1.17992 18.7489C1.26035 18.7971 1.35562 18.8113 1.44585 18.7883C1.53607 18.7654 1.61427 18.7071 1.66411 18.6257C3.42349 15.4634 6.54068 13.575 9.99642 13.575C13.4522 13.575 16.5693 15.4634 18.3287 18.6257C18.3603 18.6825 18.4057 18.7297 18.4604 18.7625C18.5151 18.7953 18.5771 18.8127 18.6403 18.8127C18.7036 18.8129 18.7658 18.7955 18.8204 18.7622C18.9029 18.7125 18.9631 18.6309 18.9878 18.5351C19.0124 18.4394 18.9995 18.3374 18.9518 18.2515ZM4.59401 7.21489C4.59401 6.10497 4.91086 5.01998 5.50448 4.09712C6.09811 3.17425 6.94185 2.45497 7.92901 2.03022C8.91617 1.60547 10.0024 1.49434 11.0504 1.71087C12.0983 1.92741 13.061 2.46188 13.8165 3.24672C14.572 4.03155 15.0866 5.03148 15.295 6.12008C15.5035 7.20867 15.3965 8.33702 14.9876 9.36246C14.5787 10.3879 13.8863 11.2643 12.9978 11.881C12.1094 12.4976 11.0649 12.8267 9.99642 12.8267C8.56413 12.825 7.19097 12.2332 6.17818 11.1812C5.1654 10.1291 4.59568 8.70272 4.59401 7.21489Z" fill="#AEAEAE" stroke="white"/>
</svg>
