<svg width="20" height="20" viewBox="0 0 20 20" fill="none" xmlns="http://www.w3.org/2000/svg">
<path d="M16.8184 5.78823C16.8667 5.51241 16.8541 5.22936 16.7814 4.95893C16.7087 4.68851 16.5777 4.43728 16.3976 4.22286C16.2175 4.00845 15.9926 3.83606 15.7388 3.71778C15.485 3.59951 15.2084 3.53822 14.9284 3.53822H5.09672C4.8167 3.53822 4.54007 3.59951 4.28626 3.71778C4.03244 3.83606 3.80759 4.00845 3.62748 4.22286C3.44737 4.43728 3.31638 4.68851 3.24369 4.95893C3.171 5.22936 3.15838 5.51241 3.20671 5.78823M14.9626 3.53822C14.9878 3.30422 15.0013 3.18812 15.0013 3.09182C15.0022 2.64694 14.8384 2.21746 14.5414 1.88623C14.2444 1.555 13.8353 1.34549 13.393 1.29811C13.2976 1.28821 13.1806 1.28821 12.9466 1.28821H7.07853C6.84453 1.28821 6.72663 1.28821 6.63123 1.29811C6.18888 1.34549 5.77975 1.555 5.48275 1.88623C5.18576 2.21746 5.02195 2.64694 5.02292 3.09182C5.02292 3.18812 5.03552 3.30512 5.06162 3.53822M1.3581 11.902C0.955803 9.05434 0.755102 7.63144 1.60831 6.70893C2.46151 5.78823 3.98072 5.78823 7.01733 5.78823H13.0078C16.0444 5.78823 17.5636 5.78823 18.4168 6.70983C19.2691 7.63144 19.0684 9.05434 18.667 11.902L18.2872 14.602C17.9722 16.834 17.8147 17.9509 17.0074 18.6196C16.2001 19.2883 15.0094 19.2883 12.6271 19.2883H7.39803C5.01662 19.2883 3.82502 19.2883 3.01771 18.6196C2.21041 17.9509 2.05291 16.8349 1.73791 14.602L1.3581 11.902Z" stroke="white"/>
<path d="M14.0627 11.1882C14.8082 11.1882 15.4127 10.5838 15.4127 9.83823C15.4127 9.09264 14.8082 8.48822 14.0627 8.48822C13.3171 8.48822 12.7126 9.09264 12.7126 9.83823C12.7126 10.5838 13.3171 11.1882 14.0627 11.1882Z" stroke="white"/>
</svg>
