<svg width="20" height="20" viewBox="0 0 20 20" fill="none" xmlns="http://www.w3.org/2000/svg">
<path d="M10 19C14.9707 19 19 14.9707 19 10C19 5.0293 14.9707 1 10 1C5.0293 1 1 5.0293 1 10C1 11.44 1.3384 12.8008 1.9387 14.0077C2.0989 14.3281 2.152 14.6944 2.0593 15.0409L1.5238 17.0443C1.47096 17.2425 1.47116 17.4511 1.52438 17.6492C1.57759 17.8473 1.68196 18.028 1.827 18.173C1.97205 18.318 2.15268 18.4224 2.35078 18.4756C2.54888 18.5288 2.7575 18.529 2.9557 18.4762L4.9591 17.9407C5.30686 17.8532 5.67462 17.8958 5.9932 18.0604C7.23783 18.6802 8.6096 19.0018 10 19Z" stroke="white"/>
<path d="M9.99995 12.9997C10.9945 12.9997 11.8 12.3283 11.8 11.5003C11.8 10.6723 10.9945 9.99999 9.99995 9.99999C9.00545 9.99999 8.19995 9.32859 8.19995 8.49969C8.19995 7.67169 9.00545 7.00029 9.99995 7.00029M9.99995 12.9997C9.00545 12.9997 8.19995 12.3283 8.19995 11.5003M9.99995 12.9997V13.6M9.99995 7.00029V6.39999M9.99995 7.00029C10.9945 7.00029 11.8 7.67169 11.8 8.49969" stroke="white" stroke-linecap="round"/>
</svg>
