<svg width="19" height="19" viewBox="0 0 19 19" fill="none" xmlns="http://www.w3.org/2000/svg">
<g clip-path="url(#clip0_433_108)">
<path d="M8.22233 6.86203C8.83564 6.86203 9.42384 7.09909 9.85752 7.52104C10.2912 7.943 10.5348 8.5153 10.5348 9.11204C10.5348 9.70877 10.2912 10.2811 9.85752 10.703C9.42384 11.125 8.83564 11.362 8.22233 11.362C7.60902 11.362 7.02082 11.125 6.58715 10.703C6.15347 10.2811 5.90983 9.70877 5.90983 9.11204C5.90983 8.5153 6.15347 7.943 6.58715 7.52104C7.02082 7.09909 7.60902 6.86203 8.22233 6.86203ZM8.22233 3.48703C12.0765 3.48703 15.368 5.81953 16.7015 9.11204C15.368 12.4045 12.0765 14.737 8.22233 14.737C4.36816 14.737 1.07671 12.4045 -0.256836 9.11204C1.07671 5.81953 4.36816 3.48703 8.22233 3.48703ZM1.42358 9.11204C2.04661 10.3498 3.01405 11.3926 4.21591 12.122C5.41777 12.8514 6.80585 13.238 8.22233 13.238C9.63882 13.238 11.0269 12.8514 12.2288 12.122C13.4306 11.3926 14.3981 10.3498 15.0211 9.11204C14.3981 7.8743 13.4306 6.83147 12.2288 6.10209C11.0269 5.37271 9.63882 4.98604 8.22233 4.98604C6.80585 4.98604 5.41777 5.37271 4.21591 6.10209C3.01405 6.83147 2.04661 7.8743 1.42358 9.11204Z" fill="white"/>
</g>
<defs>
<clipPath id="clip0_433_108">
<rect width="18.5" height="18" fill="white" transform="translate(0 0.11203)"/>
</clipPath>
</defs>
</svg>
